<svg width="24" height="24" viewBox="0 0 24 24" fill="none" xmlns="http://www.w3.org/2000/svg">
<g clip-path="url(#clip0_3072_4353)">
<path d="M7.52083 6.79545C9.15416 5.29545 11.3583 4 14 4C16.6417 4 18.8458 5.29545 20.4792 6.79545C22.1083 8.29545 23.2667 10.0864 23.8542 11.3318C24.05 11.75 24.05 12.2455 23.8542 12.6636C23.2667 13.9091 22.1083 15.7 20.4792 17.2C18.8458 18.7045 16.6417 20 14 20C11.3583 20 9.15416 18.7045 7.52083 17.2045C6.84583 16.5818 6.25 15.9091 5.74166 15.2455L2.00416 17.6182C1.48333 17.95 0.820828 17.8591 0.391661 17.3955C-0.0375054 16.9318 -0.125005 16.2136 0.174995 15.6409L2.08333 12L0.174995 8.35909C-0.125005 7.78636 -0.0333387 7.06818 0.395828 6.60455C0.824995 6.14091 1.48333 6.05 2.00833 6.38182L5.74583 8.75909C6.25416 8.09545 6.85 7.42273 7.525 6.8L7.52083 6.79545ZM18.6667 12C18.6667 11.1955 18.0708 10.5455 17.3333 10.5455C16.5958 10.5455 16 11.1955 16 12C16 12.8045 16.5958 13.4545 17.3333 13.4545C18.0708 13.4545 18.6667 12.8045 18.6667 12Z" fill="#404040"/>
</g>
<defs>
<clipPath id="clip0_3072_4353">
<rect width="24" height="24" fill="white"/>
</clipPath>
</defs>
</svg>
