<svg width="24" height="24" viewBox="0 0 24 24" fill="none" xmlns="http://www.w3.org/2000/svg">
<path d="M1.50293 11.3646L1.50295 21.7432C1.50295 22.1574 1.83873 22.4932 2.25295 22.4932H21.7453C22.1595 22.4932 22.4953 22.1574 22.4953 21.7432V13.3822C21.2845 13.8303 20.3783 14.5379 19.5082 15.2913V15.2871C19.4956 15.2995 19.4826 15.3122 19.4692 15.3252C19.3326 15.4437 19.1968 15.5634 19.0609 15.6832L19.0379 15.7034C18.9523 15.7716 18.8591 15.8421 18.7582 15.9136C18.3271 16.2189 17.7544 16.5435 17.028 16.7866C16.3321 17.0195 15.4672 17.1516 14.5314 17.1955C14.3627 17.2115 14.1917 17.2196 14.0188 17.2196C11.0464 17.2196 8.63692 14.8101 8.63692 11.8377C8.63692 10.7355 8.96827 9.71058 9.53677 8.85731C9.9633 9.27003 10.5443 9.52406 11.1847 9.52406C11.7051 9.52406 12.1873 9.35583 12.5785 9.07091C12.6359 9.03288 12.6709 9.01241 12.6949 9.00093L12.6959 9.00041C12.7083 9.00566 12.7286 9.01526 12.7591 9.03236C13.1591 9.34053 13.6609 9.52406 14.2045 9.52406C14.8064 9.52406 15.3567 9.29921 15.7745 8.92946C15.8214 8.89608 15.8461 8.88521 15.8554 8.88191C15.8642 8.88453 15.8832 8.89196 15.9155 8.91191C16.3357 9.29201 16.8937 9.52406 17.5051 9.52406C17.6844 9.52406 17.8591 9.50411 18.027 9.46638C18.1742 9.72251 18.4506 9.89501 18.7672 9.89501C19.2385 9.89501 19.6204 9.51303 19.6204 9.04181C19.6204 8.84523 19.5539 8.66411 19.4422 8.51981C19.7148 8.13386 19.875 7.66271 19.875 7.15414C19.875 5.84528 18.814 4.78425 17.5051 4.78425C17.176 4.78425 16.8623 4.85148 16.5772 4.97293C16.5521 4.93945 16.5265 4.90587 16.5002 4.87221C16.5919 4.73618 16.6454 4.57229 16.6454 4.3959C16.6454 3.92469 16.2634 3.5427 15.7922 3.5427C15.6158 3.5427 15.452 3.59621 15.316 3.68788C14.1384 2.76208 12.4234 2.00781 10.0652 2.00781C5.85534 2.00781 1.50293 6.27273 1.50293 11.3646ZM8.9463 6.37359C8.8611 6.61801 8.81482 6.88067 8.81482 7.15414C8.81482 7.53746 8.9058 7.89948 9.06735 8.21988C8.32507 9.23403 7.88692 10.4847 7.88692 11.8377C7.88692 15.2243 10.6322 17.9696 14.0188 17.9696C14.2091 17.9696 14.3977 17.9609 14.584 17.9439C15.1294 17.9177 15.6628 17.8623 16.1637 17.7727C15.2101 18.2344 14.098 18.5384 12.7523 18.5384C9.5658 18.5384 5.85534 15.672 5.85534 11.9134C5.85534 9.14208 7.3202 7.34675 8.9463 6.37359ZM9.56482 7.15414C9.56482 6.25949 10.2901 5.53425 11.1847 5.53425C11.5443 5.53425 11.8756 5.65099 12.1441 5.84876L12.1612 5.86132L12.1795 5.87189C12.3266 5.95649 12.5045 6.0261 12.7093 6.02394C12.9115 6.02181 13.0993 5.95025 13.2723 5.82666L13.2811 5.82267L13.3067 5.80558C13.5635 5.63417 13.8718 5.53425 14.2045 5.53425C14.5386 5.53425 14.848 5.63494 15.1054 5.80757L15.1221 5.8188L15.1231 5.8193L15.1268 5.82216L15.1334 5.82683C15.1497 5.83824 15.1658 5.84996 15.1816 5.86196L15.1883 5.86705L15.1953 5.87184C15.3893 6.00551 15.6034 6.09195 15.8447 6.09074C16.0814 6.08956 16.2981 6.00413 16.4994 5.88131L16.5152 5.87164L16.53 5.86045C16.8013 5.65558 17.1385 5.53425 17.5051 5.53425C18.3997 5.53425 19.125 6.25949 19.125 7.15414C19.125 8.04881 18.3997 8.77406 17.5051 8.77406C17.0784 8.77406 16.6909 8.60951 16.4014 8.33981L16.3794 8.31941L16.3545 8.30268C16.1992 8.19866 16.0189 8.11931 15.8096 8.13243C15.6072 8.14518 15.4441 8.24118 15.3166 8.33516L15.3017 8.34603L15.2881 8.35833C15.0007 8.61708 14.6214 8.77406 14.2045 8.77406C13.8252 8.77406 13.4772 8.64408 13.2012 8.42598L13.1805 8.40963L13.1577 8.39636C13.0206 8.31633 12.847 8.22993 12.6365 8.24816C12.4419 8.26503 12.28 8.36853 12.1559 8.45126L12.1489 8.45598L12.142 8.46101C11.8739 8.65788 11.5434 8.77406 11.1847 8.77406C10.2901 8.77406 9.56482 8.04881 9.56482 7.15414Z" fill="#404040"/>
<path d="M20.944 7.70644C21.4152 7.70644 21.7972 7.32441 21.7972 6.8532C21.7972 6.382 21.4152 6 20.944 6C20.4728 6 20.0908 6.382 20.0908 6.8532C20.0908 7.32441 20.4728 7.70644 20.944 7.70644Z" fill="#212121"/>
<path d="M21.7972 11.2321C21.7972 11.7033 21.4152 12.0853 20.944 12.0853C20.4728 12.0853 20.0908 11.7033 20.0908 11.2321C20.0908 10.7609 20.4728 10.3789 20.944 10.3789C21.4152 10.3789 21.7972 10.7609 21.7972 11.2321Z" fill="#212121"/>
<path d="M13.5358 11.4564C14.007 11.4564 14.389 11.0744 14.389 10.6032C14.389 10.132 14.007 9.75 13.5358 9.75C13.0646 9.75 12.6826 10.132 12.6826 10.6032C12.6826 11.0744 13.0646 11.4564 13.5358 11.4564Z" fill="#212121"/>
</svg>
