<svg width="24" height="24" viewBox="0 0 24 24" fill="none" xmlns="http://www.w3.org/2000/svg">
<path d="M11.9995 2.00053C10.4674 1.99776 8.95516 2.34707 7.57948 3.0215C6.20379 3.69593 5.00147 4.67745 4.06531 5.89029C3.12916 7.10313 2.4842 8.51487 2.18023 10.0165C1.87626 11.5182 1.92141 13.0696 2.31218 14.551C2.70295 16.0325 3.4289 17.4043 4.43399 18.5607C5.43908 19.717 6.69644 20.627 8.10902 21.2203C9.52159 21.8136 11.0516 22.0744 12.581 21.9825C14.1103 21.8907 15.5981 21.4486 16.9295 20.6905H16.9995H17.0495C18.9748 19.5945 20.4816 17.8903 21.3335 15.8453C22.1854 13.8002 22.334 11.5302 21.7562 9.39156C21.1783 7.2529 19.9066 5.36666 18.1407 4.02894C16.3749 2.69122 14.2148 1.97775 11.9995 2.00053ZM12.9995 4.07053C14.7596 4.29372 16.3955 5.09562 17.65 6.35011C18.9044 7.6046 19.7063 9.24051 19.9295 11.0005H12.9995V4.07053ZM11.9995 20.0005C9.97404 19.9867 8.0292 19.2051 6.55748 17.8134C5.08576 16.4217 4.19674 14.5235 4.06984 12.5019C3.94293 10.4804 4.58759 8.48592 5.87372 6.92109C7.15984 5.35626 8.99167 4.33754 10.9995 4.07053V12.0005C11.0035 12.1202 11.0271 12.2385 11.0695 12.3505V12.4305V12.5005L15.0695 19.3705C14.0993 19.7858 13.0549 20.0001 11.9995 20.0005ZM16.8295 18.3605L13.7295 13.0005H19.9295C19.7949 14.0551 19.4514 15.0723 18.9191 15.9926C18.3869 16.9129 17.6765 17.7179 16.8295 18.3605Z" fill="#404040"/>
</svg>
