<svg width="24" height="24" viewBox="0 0 24 24" fill="none" xmlns="http://www.w3.org/2000/svg">
<path d="M23.8535 18.166C23.9494 18.375 24 18.5916 24 18.8135V19.499C24 21.2457 20.8782 22.662 17.0273 22.6621C13.1763 22.6621 10.0537 21.2457 10.0537 19.499V18.8135C10.0537 18.5916 10.1052 18.3752 10.2012 18.166C10.8605 19.6018 13.6661 20.6807 17.0273 20.6807C20.3886 20.6806 23.1943 19.6018 23.8535 18.166ZM0.146484 16.2686C0.805507 17.7044 3.61124 18.7831 6.97266 18.7832C7.64721 18.7832 8.29905 18.7392 8.91602 18.6582V19.498C8.91602 19.8818 9.00506 20.2523 9.17676 20.6035C8.48407 20.7081 7.74279 20.7646 6.97266 20.7646C3.12206 20.7646 0.000502689 19.349 0 17.6025V16.916C3.45873e-05 16.6941 0.0505603 16.4776 0.146484 16.2686ZM23.8535 14.6348C23.9494 14.8437 24 15.0603 24 15.2822V15.9678C24 17.7144 20.8782 19.1308 17.0273 19.1309C13.1763 19.1309 10.0537 17.7145 10.0537 15.9678V15.2822C10.0537 15.0603 10.1052 14.8439 10.2012 14.6348C10.8606 16.0705 13.6661 17.1494 17.0273 17.1494C20.3886 17.1494 23.1943 16.0705 23.8535 14.6348ZM0.146484 12.7383C0.805502 14.1742 3.61128 15.2538 6.97266 15.2539C7.6472 15.2539 8.29907 15.2089 8.91602 15.1279V17.1104C8.2992 17.1913 7.647 17.2344 6.97266 17.2344C3.12181 17.2343 4.35552e-05 15.8189 0 14.0723V13.3867C0 13.1647 0.0505085 12.9474 0.146484 12.7383ZM23.8535 10.9131C23.9494 11.1221 24 11.3386 24 11.5605V12.2471C23.9996 13.9936 20.8779 15.4091 17.0273 15.4092C13.1766 15.4092 10.0541 13.9937 10.0537 12.2471V11.5605C10.0538 11.3386 10.1052 11.1221 10.2012 10.9131C10.8603 12.3489 13.6659 13.4277 17.0273 13.4277C20.3888 13.4277 23.1945 12.349 23.8535 10.9131ZM6.97266 6.69336C7.64699 6.69336 8.29927 6.73638 8.91602 6.81738V13.5791C8.29918 13.6602 7.64702 13.7041 6.97266 13.7041C3.12214 13.704 0.000574492 12.2883 0 10.542V9.85547C0.000197912 8.10891 3.1219 6.69345 6.97266 6.69336ZM23.8535 7.38184C23.9494 7.59083 24 7.80735 24 8.0293V8.71582C23.9996 10.4623 20.8779 11.8779 17.0273 11.8779C13.1766 11.8779 10.0541 10.4623 10.0537 8.71582V8.0293C10.0538 7.80733 10.1052 7.59085 10.2012 7.38184C10.8603 8.81775 13.6659 9.89648 17.0273 9.89648C20.3888 9.89643 23.1945 8.81779 23.8535 7.38184ZM17.0273 1.33594C20.8782 1.336 24 2.75238 24 4.49902V5.18457C24 6.93122 20.8782 8.34759 17.0273 8.34766C13.1763 8.34766 10.0537 6.93126 10.0537 5.18457V4.49902C10.0537 2.75233 13.1763 1.33594 17.0273 1.33594Z" fill="#404040"/>
</svg>
