<svg width="24" height="24" viewBox="0 0 24 24" fill="none" xmlns="http://www.w3.org/2000/svg">
<path d="M13.3577 6.44531C10.2337 6.44531 7.50559 8.34704 5.98719 9.97412L2.9549 7.68073C2.53372 7.36198 1.9049 7.70156 2.01254 8.18975L2.85212 12.0009L2.0122 15.8123C1.90456 16.3005 2.53338 16.6397 2.95456 16.3213L5.98684 14.0279C7.50524 15.6547 10.2337 17.5564 13.3577 17.5564C18.1306 17.5564 22 13.112 22 12.0009C22 10.8897 18.1306 6.44531 13.3577 6.44531ZM16.3934 12.8342C15.9333 12.8342 15.5601 12.4609 15.5601 12.0009C15.5601 11.5404 15.9333 11.1675 16.3934 11.1675C16.8538 11.1675 17.2267 11.5404 17.2267 12.0009C17.2267 12.4609 16.8535 12.8342 16.3934 12.8342Z" fill="#404040"/>
</svg>
