<svg width="24" height="24" viewBox="0 0 24 24" fill="none" xmlns="http://www.w3.org/2000/svg">
<path d="M12 2C6.47645 2 2 6.47645 2 12C2 17.5236 6.47645 22 12 22C17.5236 22 22 17.5236 22 12C22 6.47645 17.5236 2 12 2ZM15.0303 15.0303C14.7363 15.3243 14.2622 15.3243 13.9682 15.0303L11.4689 12.5311C11.3279 12.39 11.2499 12.201 11.2499 12V8.0006C11.2499 7.58656 11.586 7.25053 12 7.25053C12.414 7.25053 12.7501 7.58656 12.7501 8.0006V11.691L15.0303 13.9712C15.3243 14.2622 15.3243 14.7363 15.0303 15.0303Z" fill="#404040"/>
</svg>
